<?xml version="1.0" encoding="utf-8"?>
<!-- Generator: Adobe Illustrator 26.0.2, SVG Export Plug-In . SVG Version: 6.00 Build 0)  -->
<svg version="1.1" id="Layer_1" xmlns="http://www.w3.org/2000/svg" xmlns:xlink="http://www.w3.org/1999/xlink" x="0px" y="0px"
	 viewBox="0 0 512 512" style="enable-background:new 0 0 512 512;" xml:space="preserve">
<style type="text/css">
	.st0{fill:#FFFFFF;}
</style>
<path class="st0" d="M488.21,211.18c0.5-1.29,13.73-1.26,20.44-11.32c-10.06,3.35-18.18,4.73-17.81,3.37
	c2.28-8.41,3.12-17.28,2.19-26.59c-0.18-1.75,2.22-13.65,18.98-30.41c-23.46,10.06-20.36,21.54-20.8,19.73
	c-4.4-18.39-15.7-38.39-36.19-59.96c0,0,40.22,56.6,0,93.66s-100.56,33.71-110.61,30.36c-10.06-3.35-10.06-16.76-3.35-40.22
	c-10.06-13.41-9.25-34.29-23.46-46.93c6.7,26.82,3.35,33.52-3.35,50.28c13.41,16.76-11.73,41.9-11.73,55.31
	c0-3.35-23.04-10.06-46.51-10.06s-46.51,6.7-46.51,10.06c0-13.41-25.14-38.55-11.73-55.31c-6.7-16.76-10.06-23.46-3.35-50.28
	c-14.21,12.64-13.41,33.52-23.46,46.93c6.7,23.46,6.7,36.87-3.35,40.22c-10.06,3.35-70.39,6.7-110.61-30.36s0-93.66,0-93.66
	C36.5,127.57,25.2,147.57,20.8,165.96c-0.43,1.81,2.67-9.68-20.8-19.73c16.76,16.76,19.15,28.66,18.98,30.41
	c-0.93,9.32-0.09,18.18,2.19,26.59c0.37,1.36-7.75-0.02-17.81-3.37c6.7,10.06,19.93,10.03,20.44,11.32c2,5.12,4.52,10.05,7.5,14.8
	c1.88,3-14.53,10.75-27.93,40.92c13.41-13.41,39.02-26.1,41.73-23.22c9.12,9.72,19.99,18.47,31.64,26.22
	c1.61,1.07-8.84,8.73-12.19,38.9c10.06-16.76,25.04-31.23,26.82-30.17c10.98,6.57,22.04,12.13,32.61,16.76
	c5.68,2.49-5.79,50.28-12.5,56.98c26.82-6.7,41.92-45.81,47.64-44.15c13.17,3.82,23.43,5.61,28.62,5.61
	c0,35.63,38.13,92.18,68.29,92.18s68.29-56.55,68.29-92.18c5.18,0,15.45-1.78,28.62-5.61c5.72-1.66,20.82,37.45,47.64,44.15
	c-6.7-6.7-18.18-54.49-12.5-56.98c10.57-4.63,21.63-10.19,32.61-16.76c1.77-1.06,16.76,13.41,26.82,30.17
	c-3.35-30.17-13.8-37.82-12.19-38.9c11.64-7.75,22.52-16.5,31.64-26.22c2.71-2.89,28.32,9.81,41.73,23.22
	c-13.41-30.17-29.81-37.92-27.93-40.92C483.69,221.23,486.22,216.29,488.21,211.18z"/>
</svg>
